<?xml version="1.0" standalone="no"?>
<!DOCTYPE svg PUBLIC "-//W3C//DTD SVG 20010904//EN"
 "http://www.w3.org/TR/2001/REC-SVG-20010904/DTD/svg10.dtd">
<svg version="1.0" xmlns="http://www.w3.org/2000/svg"
 width="800.000000pt" height="600.000000pt" viewBox="0 0 800.000000 600.000000"
 preserveAspectRatio="xMidYMid meet">
<metadata>
Created by potrace 1.16, written by Peter Selinger 2001-2019
</metadata>
<g transform="translate(0.000000,600.000000) scale(0.100000,-0.100000)"
fill="#000000" stroke="none">
<path d="M1805 5204 c-391 -40 -701 -143 -965 -319 -391 -260 -637 -696 -691
-1222 -15 -147 -5 -417 21 -568 74 -421 292 -763 625 -977 448 -289 1134 -361
1853 -197 154 35 355 97 434 134 29 14 68 25 86 25 l32 0 0 885 0 885 -815 0
-815 0 0 -130 0 -130 339 0 c216 0 342 4 346 10 3 6 22 10 41 10 30 0 34 -3
34 -27 l0 -28 -380 3 -380 4 0 -47 0 -47 380 4 380 3 0 -22 c0 -20 -5 -23 -40
-23 -22 0 -40 3 -40 8 0 4 -153 6 -340 4 l-340 -3 0 -50 0 -50 340 1 c196 1
342 5 345 11 4 5 22 9 41 9 30 0 34 -3 34 -26 0 -24 -3 -25 -42 -24 -24 1
-195 1 -380 1 l-338 -1 0 -45 0 -45 339 0 c216 0 342 4 346 10 3 6 22 10 41
10 31 0 34 -2 34 -30 0 -28 -3 -30 -34 -30 -19 0 -37 3 -39 8 -3 4 -159 6
-346 4 l-341 -3 0 -34 0 -35 315 0 315 0 0 -234 0 -235 -47 -8 c-83 -13 -321
-7 -403 11 -92 20 -217 79 -287 135 -136 109 -232 299 -264 519 -18 126 -7
386 21 487 89 328 315 538 646 601 73 13 128 15 299 11 290 -7 469 -42 698
-135 l97 -40 -2 431 -3 432 -182 37 c-287 58 -399 70 -678 73 -137 2 -268 1
-290 -1z m1237 -1536 l38 -41 0 -296 0 -295 -37 -38 -37 -38 -297 0 -297 0
-36 40 -36 40 0 292 0 292 42 43 42 43 290 0 289 0 39 -42z m-312 -1108 c0
-260 -2 -300 -15 -300 -13 0 -15 40 -15 300 0 260 2 300 15 300 13 0 15 -40
15 -300z m120 -50 c0 -304 -2 -350 -15 -350 -13 0 -15 46 -15 350 0 304 2 350
15 350 13 0 15 -46 15 -350z m120 -50 c0 -349 -2 -400 -15 -400 -13 0 -15 51
-15 400 0 349 2 400 15 400 13 0 15 -51 15 -400z"/>
<path d="M2409 3641 l-29 -29 0 -279 0 -279 28 -26 27 -27 279 -2 279 -3 28
32 29 32 0 274 0 274 -26 31 -26 31 -280 0 -280 0 -29 -29z m598 -3 c23 -21
23 -22 23 -302 0 -273 0 -280 -22 -303 -21 -23 -22 -23 -297 -23 -268 0 -275
1 -298 22 -23 21 -23 22 -23 297 l0 275 27 28 27 28 270 0 c263 0 270 -1 293
-22z"/>
<path d="M2465 3577 c-3 -7 -4 -120 -3 -252 l3 -240 245 0 245 0 0 250 0 250
-243 3 c-190 2 -244 0 -247 -11z m357 -7 l128 0 0 -240 0 -240 -237 2 -238 3
-3 230 c-1 126 0 236 3 244 5 11 25 13 112 8 58 -4 164 -7 235 -7z"/>
<path d="M6630 3456 l0 -1734 -55 -26 -56 -26 -377 0 -377 0 -49 29 -48 28
-868 -5 -868 -5 -65 37 -65 36 -240 0 -240 0 -81 -65 -80 -65 -281 0 -281 0
-26 30 c-35 42 -91 42 -126 1 l-24 -29 -437 -8 -436 -7 -59 -53 -59 -54 -100
0 -100 0 -53 55 -52 55 -85 0 c-80 0 -85 1 -112 30 -32 35 -81 40 -118 14 -13
-9 -25 -14 -26 -13 -2 2 -42 59 -90 127 l-87 122 -156 0 -155 0 -35 30 c-45
40 -83 40 -117 -1 -77 -91 47 -192 128 -104 l32 35 140 0 140 0 92 -130 c51
-72 99 -146 106 -165 8 -19 20 -35 25 -35 6 0 11 -4 11 -10 0 -6 -41 -10 -104
-10 -80 0 -106 3 -116 15 -26 31 -90 8 -90 -33 0 -10 7 -28 16 -40 15 -22 15
-22 -30 -22 -39 0 -46 -3 -46 -20 0 -20 7 -20 289 -20 l288 0 38 -90 c37 -88
37 -90 21 -124 -15 -31 -15 -39 -2 -70 19 -46 71 -64 115 -41 17 8 35 24 41
35 10 19 21 20 153 20 l142 0 61 94 62 93 138 6 c75 4 288 7 472 7 319 0 335
-1 359 -20 l26 -20 -170 0 c-93 0 -251 -3 -351 -7 l-182 -6 -72 -127 -73 -127
-89 -7 c-49 -3 -129 -6 -178 -6 -76 0 -93 3 -119 22 -29 21 -31 22 -62 5 -25
-13 -65 -17 -186 -19 l-154 -3 -59 134 c-32 74 -58 140 -58 147 0 29 -30 33
-260 35 -209 1 -236 -1 -245 -16 -22 -36 10 -40 220 -32 147 6 205 5 221 -3
13 -8 37 -46 60 -99 20 -47 50 -114 65 -148 l28 -63 174 0 c143 0 177 -3 187
-15 16 -19 54 -19 70 0 10 12 50 15 208 17 l196 3 79 133 78 132 264 0 c229 0
264 -2 259 -15 -5 -12 -43 -15 -232 -17 l-225 -3 -96 -142 -96 -142 -291 -1
c-247 0 -293 2 -304 15 -16 19 -54 19 -70 0 -10 -12 -40 -15 -152 -15 l-140 0
-30 30 c-16 17 -40 30 -52 30 -20 0 -28 13 -55 83 -19 47 -29 90 -25 100 9 25
-22 67 -49 67 -13 0 -32 -7 -43 -15 -14 -10 -47 -14 -121 -15 -100 0 -102 1
-131 30 -75 74 -184 2 -141 -93 11 -25 47 -47 75 -47 26 0 72 29 79 50 6 18
15 20 110 20 136 0 161 -14 205 -117 29 -69 30 -75 15 -102 -22 -44 -19 -69
14 -102 40 -40 83 -39 121 1 l28 30 136 0 c111 0 142 -3 162 -17 24 -15 28
-15 57 0 26 13 84 17 328 23 l297 6 73 107 c41 58 85 123 99 143 l24 38 203 0
203 0 40 -40 41 -41 -3 -82 -3 -82 -44 -3 c-39 -3 -47 0 -68 27 -29 37 -72 47
-111 27 -42 -22 -56 -72 -31 -118 14 -26 -6 -78 -30 -78 -9 0 -25 -6 -36 -14
-16 -10 -101 -15 -380 -21 -198 -4 -364 -9 -368 -12 -4 -2 -30 -48 -57 -102
l-49 -98 -152 -6 c-84 -4 -246 -7 -362 -7 l-209 0 -28 30 c-22 24 -36 30 -68
30 -94 0 -113 -122 -24 -159 36 -15 75 -2 98 34 l16 25 374 0 373 0 57 108 58
109 346 6 c276 5 348 3 358 -7 11 -11 8 -24 -17 -75 l-31 -61 -205 0 c-125 0
-205 4 -205 10 0 21 -45 50 -77 50 -74 0 -111 -93 -58 -145 36 -37 80 -33 121
10 l33 35 209 0 210 0 37 73 c20 39 48 80 61 90 13 11 24 29 24 42 0 14 8 40
17 60 13 28 22 35 46 35 19 0 38 10 57 30 26 27 34 30 94 30 l66 0 0 105 0
105 40 40 c39 39 41 40 113 40 l72 0 48 -55 48 -55 126 0 126 0 56 53 56 54
460 6 c253 4 719 7 1036 7 317 0 927 3 1357 7 750 6 782 7 782 25 0 31 36 58
78 58 45 0 77 -20 86 -55 l6 -25 225 0 225 0 0 70 0 70 -39 0 c-26 0 -41 5
-45 16 -9 24 -9 24 39 24 33 0 45 4 45 15 0 11 -12 15 -45 15 -33 0 -45 4 -45
15 0 11 12 15 46 15 55 0 57 23 1 25 -65 1 -62 35 4 35 26 0 39 4 39 14 0 9
-10 12 -32 10 -18 -2 -39 0 -47 5 -23 15 -2 31 40 31 53 0 50 18 -3 22 -30 2
-43 8 -43 18 0 11 11 15 39 16 22 0 42 6 44 12 2 8 -10 12 -37 12 -37 0 -61
14 -47 27 3 3 24 6 46 6 55 0 54 25 -2 29 -59 4 -63 28 -4 28 34 0 46 4 46 15
0 11 -12 15 -45 15 -35 0 -43 3 -39 15 4 10 20 15 45 15 l39 0 0 44 0 45 -42
3 c-30 2 -43 8 -43 18 0 10 13 16 43 18 52 4 56 22 4 22 -43 0 -53 6 -45 26 3
9 20 14 44 14 21 0 39 5 39 10 0 6 -17 10 -38 10 -43 0 -53 6 -45 26 3 9 20
14 44 14 51 0 50 18 -1 22 -22 2 -40 8 -40 13 0 6 18 11 40 13 26 2 40 8 40
17 0 9 -14 15 -40 17 -22 2 -40 8 -40 13 0 6 18 11 40 13 50 4 55 28 6 29 -68
2 -73 33 -5 33 53 0 50 18 -3 22 -30 2 -43 8 -43 18 0 10 13 16 43 18 23 2 42
7 42 12 0 5 -19 10 -42 12 -30 2 -43 8 -43 18 0 10 13 16 43 18 56 4 58 30 2
34 -22 2 -40 8 -40 13 0 6 18 11 40 13 56 4 56 32 0 32 -29 0 -40 4 -40 15 0
11 11 15 40 15 29 0 40 4 40 15 0 11 -12 15 -45 15 -35 0 -43 3 -39 15 4 10
20 15 45 15 21 0 39 5 39 10 0 6 -18 10 -40 10 -33 0 -40 3 -40 20 0 17 7 20
40 20 22 0 40 5 40 10 0 6 -17 10 -38 10 -21 0 -42 3 -45 7 -13 13 16 33 49
33 19 0 34 5 34 10 0 6 -18 10 -39 10 -22 0 -42 4 -45 9 -10 16 23 33 54 29
20 -3 30 0 30 9 0 9 -13 13 -40 13 -33 0 -40 3 -40 20 0 17 7 20 40 20 22 0
40 5 40 10 0 6 -18 10 -40 10 -29 0 -40 4 -40 15 0 11 11 15 40 15 38 0 40 2
40 30 0 28 -2 30 -40 30 -33 0 -40 3 -40 20 0 17 7 20 40 20 22 0 40 5 40 10
0 6 -18 10 -40 10 -33 0 -40 3 -40 20 0 17 7 20 40 20 22 0 40 5 40 10 0 6
-18 10 -40 10 -33 0 -40 3 -40 20 0 17 7 20 40 20 22 0 40 5 40 10 0 6 -18 10
-40 10 -33 0 -40 3 -40 20 0 17 7 20 40 20 29 0 40 4 40 15 0 9 -10 15 -26 15
-41 0 -64 18 -64 50 0 32 23 50 64 50 21 0 26 5 26 24 0 22 -5 25 -42 28 -31
2 -44 8 -46 21 -3 14 4 17 42 17 34 0 46 4 46 15 0 11 -12 15 -45 15 -33 0
-45 4 -45 15 0 11 12 15 45 15 57 0 59 18 3 22 -30 2 -43 8 -43 18 0 10 13 16
43 18 23 2 42 7 42 12 0 5 -19 10 -42 12 -30 2 -43 8 -43 18 0 10 13 16 43 18
53 4 56 22 3 22 -22 0 -43 5 -47 11 -10 17 18 30 54 24 24 -5 32 -2 32 9 0 10
-13 16 -42 18 -59 4 -63 28 -4 28 33 0 46 4 46 14 0 10 -13 16 -42 18 -59 4
-63 28 -4 28 34 0 46 4 46 15 0 11 -12 15 -45 15 -35 0 -43 3 -39 15 4 10 20
15 45 15 l39 0 0 44 0 45 -42 3 c-30 2 -43 8 -43 18 0 10 13 16 43 18 56 4 54
22 -3 22 -25 0 -45 4 -45 10 0 15 34 29 63 26 18 -2 27 2 27 10 0 10 -13 14
-38 14 -43 0 -53 6 -45 26 3 9 20 14 44 14 51 0 50 18 -1 22 -22 2 -40 8 -40
13 0 6 18 11 40 13 26 2 40 8 40 17 0 9 -14 15 -40 17 -53 4 -52 22 0 26 51 4
49 27 -1 26 -33 0 -53 12 -43 28 3 4 23 8 45 8 53 0 50 18 -3 22 -30 2 -43 8
-43 18 0 10 13 16 43 18 52 4 56 22 4 22 -43 0 -53 6 -45 26 3 9 20 14 44 14
55 0 54 28 -1 32 -22 2 -40 8 -40 13 0 6 18 11 40 13 56 4 56 32 0 32 -29 0
-40 4 -40 15 0 11 11 15 40 15 29 0 40 4 40 15 0 11 -12 15 -45 15 -35 0 -43
3 -39 15 4 10 20 15 45 15 21 0 39 5 39 10 0 6 -18 10 -40 10 -33 0 -40 3 -40
20 0 17 7 20 40 20 22 0 40 5 40 10 0 6 -18 10 -39 10 -22 0 -42 4 -45 9 -10
15 18 29 52 27 20 -1 32 2 32 10 0 8 -16 14 -40 16 -22 2 -40 8 -40 13 0 6 18
11 40 13 56 4 56 32 0 32 -33 0 -40 3 -40 20 0 17 7 20 40 20 22 0 40 5 40 10
0 6 -18 10 -40 10 -29 0 -40 4 -40 15 0 11 11 15 40 15 38 0 40 2 40 30 0 28
-2 30 -40 30 -33 0 -40 3 -40 20 0 17 7 20 40 20 22 0 40 5 40 10 0 6 -18 10
-40 10 -33 0 -40 3 -40 20 0 17 7 20 40 20 22 0 40 5 40 10 0 6 -18 10 -40 10
-33 0 -40 3 -40 20 0 17 7 20 40 20 22 0 40 5 40 10 0 6 -18 10 -40 10 -33 0
-40 3 -40 20 0 17 7 20 40 20 l40 0 0 90 0 90 -225 0 c-214 0 -225 -1 -225
-19 0 -31 -32 -61 -72 -68 -32 -5 -41 -1 -68 25 -16 17 -30 38 -30 46 0 14
-20 16 -145 16 l-145 0 0 -1734z m220 1504 c0 -16 5 -30 10 -30 6 0 10 14 10
30 0 17 5 30 10 30 6 0 10 -13 10 -29 0 -17 5 -33 10 -36 6 -4 10 8 10 29 0
20 5 36 10 36 6 0 10 -16 10 -35 0 -19 5 -35 10 -35 6 0 10 16 10 35 0 19 5
35 10 35 6 0 10 -16 10 -35 0 -19 5 -35 10 -35 6 0 10 16 10 35 0 19 5 35 10
35 6 0 10 -16 10 -35 0 -19 5 -35 10 -35 6 0 10 16 10 35 0 19 5 35 11 35 7 0
10 -14 7 -35 l-4 -35 93 0 93 0 0 -110 0 -110 -215 0 -215 0 0 110 c0 89 3
112 15 116 9 4 15 19 15 35 0 16 5 29 10 29 6 0 10 -13 10 -30z m370 -600 l0
-110 -215 0 -215 0 0 110 0 110 215 0 215 0 0 -110z m0 -450 l0 -110 -215 0
-215 0 0 110 0 110 215 0 215 0 0 -110z m0 -450 l0 -110 -215 0 -215 0 0 110
0 110 215 0 215 0 0 -110z m-370 -790 c0 -16 5 -30 10 -30 6 0 10 14 10 30 0
17 5 30 10 30 6 0 10 -13 10 -30 l0 -30 148 0 c81 0 157 -3 170 -6 21 -6 22
-11 22 -110 l0 -104 -215 0 -215 0 0 110 c0 91 3 110 15 110 10 0 15 10 15 30
0 17 5 30 10 30 6 0 10 -13 10 -30z m-10 -455 l0 -35 190 0 190 0 0 -110 0
-110 -215 0 -215 0 0 110 c0 99 2 110 18 110 15 0 17 6 14 35 -3 21 0 35 7 35
6 0 11 -16 11 -35z m-2990 -500 l70 -35 870 0 c849 0 872 0 910 -20 21 -11 41
-24 45 -30 9 -15 -22 -12 -57 6 -27 14 -121 16 -907 13 l-876 -3 -67 43 c-38
24 -68 47 -68 52 0 13 5 12 80 -26z m-56 -46 l111 -71 865 7 c787 6 868 5 903
-10 34 -14 84 -15 460 -10 232 3 439 8 460 11 31 3 37 1 37 -14 0 -18 -48 -19
-1412 -25 l-1412 -7 -39 28 c-20 15 -57 41 -80 57 l-42 30 -161 -5 -160 -5
-53 -46 c-62 -54 -83 -59 -261 -59 -92 0 -120 3 -130 15 -7 8 -25 15 -40 15
-15 0 -33 -7 -40 -15 -10 -12 -38 -15 -131 -15 -66 0 -119 2 -119 4 0 2 12 18
27 35 l27 31 291 0 290 1 70 59 70 59 179 1 179 0 111 -71z m3426 -49 l0 -110
-215 0 -215 0 0 110 0 110 215 0 215 0 0 -110z m-3510 -51 l67 -51 734 1 c404
1 1046 4 1427 8 688 6 692 6 692 -14 0 -20 -7 -20 -1336 -27 l-1335 -8 -62
-36 c-34 -19 -69 -42 -78 -49 -12 -10 -68 -13 -235 -13 l-220 0 -66 48 -66 48
-179 -2 -178 -2 0 -23 0 -23 171 3 171 3 65 -48 66 -47 231 2 231 2 83 48 82
48 1328 7 c1292 7 1327 6 1327 -12 0 -18 -28 -19 -847 -25 -467 -4 -1066 -7
-1333 -7 l-485 0 -79 -45 -78 -45 -249 0 -249 0 -80 40 -80 40 -219 0 c-182 0
-221 3 -231 15 -16 19 -50 19 -77 0 -18 -13 -95 -15 -504 -17 l-482 -3 -66
-97 -65 -98 -124 0 -123 0 -33 35 c-20 21 -43 35 -57 35 -21 0 -30 13 -68 100
l-44 100 -233 0 c-129 0 -234 4 -234 8 0 28 30 32 256 32 l232 0 50 -92 49
-93 155 -3 154 -2 101 95 102 96 548 6 c503 6 549 5 562 -10 17 -21 64 -22 81
-2 10 12 43 15 178 15 l165 0 64 55 65 55 145 0 146 0 67 -51z m-2554 -14 l48
-55 131 0 130 1 55 54 55 55 425 -1 425 0 23 -30 24 -29 -399 0 -398 -1 -105
-99 -105 -100 -130 3 -130 2 -50 92 -50 93 -97 0 c-54 0 -98 2 -98 5 0 3 10
19 22 35 21 29 25 30 99 30 l77 0 48 -55z m5474 -203 c0 -18 -19 -19 -352 -25
-194 -4 -738 -7 -1208 -8 -822 -1 -1142 -7 -1185 -23 -11 -4 3 7 30 26 l50 33
995 5 c547 3 1147 6 1333 8 321 2 337 1 337 -16z m-3450 -28 c25 -14 36 -22
25 -18 -11 4 -135 6 -275 5 l-255 -3 19 21 c18 20 29 21 230 21 206 -1 212 -1
256 -26z m3450 -64 c0 -20 -7 -20 -758 -20 -417 0 -1036 -3 -1375 -7 -603 -6
-656 -4 -599 23 22 11 678 19 1835 22 891 2 897 2 897 -18z m-3417 -6 c26 -9
47 -19 47 -23 0 -5 -24 -31 -54 -60 l-55 -51 -105 0 -104 0 -47 55 -47 55 -94
0 c-87 0 -94 1 -94 20 0 19 7 20 253 20 206 0 262 -3 300 -16z"/>
<path d="M3460 5085 c0 -73 1 -75 25 -75 13 0 28 7 33 16 8 14 107 15 1031 8
l1022 -7 87 -112 c81 -105 90 -113 127 -118 28 -4 47 -15 66 -36 l25 -31 126
0 c100 0 133 4 156 17 34 20 58 13 74 -22 9 -21 8 -28 -7 -45 -21 -24 -58 -26
-75 -5 -10 12 -40 15 -147 15 l-134 0 -26 -30 c-49 -59 -138 -29 -136 46 0 22
2 47 4 56 2 10 -29 60 -76 121 l-79 104 -210 6 c-308 10 -1558 8 -1554 -2 2
-4 31 -38 65 -75 l62 -68 101 -1 c55 -1 100 2 100 6 0 20 51 57 78 57 28 0 74
-33 83 -58 2 -7 34 -12 79 -14 73 -2 77 -1 155 45 l80 47 231 0 231 0 67 -51
67 -51 167 3 167 3 0 -25 c0 -27 5 -27 -250 -13 l-110 6 -66 49 -66 49 -209 0
-209 0 -85 -50 c-82 -48 -88 -50 -163 -50 -75 0 -81 -2 -107 -30 -38 -41 -82
-41 -121 1 -28 30 -33 31 -129 36 l-101 6 -86 93 -85 94 -139 0 -139 0 0 -305
0 -305 460 0 460 0 0 -477 0 -476 60 -113 60 -112 0 -621 0 -621 -36 -40 -36
-40 156 0 156 0 0 271 0 270 -35 33 c-26 25 -35 42 -35 65 0 41 47 91 84 91
l26 0 0 260 c0 238 2 264 20 312 19 47 21 72 18 233 l-2 180 24 0 25 0 -3
-190 c-3 -158 -7 -199 -23 -245 -18 -50 -19 -77 -17 -320 3 -226 6 -272 22
-310 15 -39 18 -83 19 -345 l2 -300 38 -3 37 -3 0 984 0 984 115 89 c104 81
114 92 115 122 0 24 9 43 30 64 l30 30 0 130 c0 107 -3 135 -16 149 -22 24
-11 66 21 81 51 23 100 -46 60 -86 -12 -11 -15 -42 -15 -145 l0 -129 30 -30
c42 -43 42 -91 -2 -127 -23 -19 -39 -25 -57 -22 -14 3 -34 7 -43 9 -10 2 -63
-32 -123 -77 l-105 -80 0 -877 c0 -483 3 -878 8 -878 4 1 39 30 77 66 l70 65
1 94 c1 54 -2 95 -7 95 -24 0 -59 50 -59 83 0 33 38 87 61 87 5 0 9 32 9 70 0
66 -3 76 -50 158 l-50 88 0 231 0 230 51 67 51 68 -3 166 -3 167 24 0 24 0 -3
-180 -3 -180 -49 -66 -49 -66 0 -209 0 -208 50 -88 c48 -84 50 -91 50 -164 0
-72 2 -78 30 -104 23 -21 30 -37 30 -65 0 -28 -7 -44 -30 -65 -29 -27 -30 -30
-30 -127 l0 -100 -100 -92 -100 -93 0 -59 0 -59 195 0 195 0 0 1250 0 1250
455 0 455 0 0 385 0 385 -1410 0 -1410 0 0 -75z"/>
<path d="M4380 2626 l0 -720 35 34 35 34 0 620 -1 621 -34 65 -34 65 -1 -719z"/>
<path d="M4793 2453 c-10 -3 -13 -70 -13 -284 0 -259 1 -279 18 -279 16 0 17
16 14 212 -2 117 -3 218 -2 223 9 78 10 135 3 134 -4 0 -14 -3 -20 -6z"/>
</g>
</svg>
